<svg width="128" height="126" viewBox="0 0 128 126" fill="none" xmlns="http://www.w3.org/2000/svg">
    <g clip-path="url(#clip0_88_6)">
        <rect width="128" height="126" fill="white"/>
        <g filter="url(#filter0_d_88_6)">
            <rect x="6" y="63.9828" width="82" height="82" transform="rotate(-45 6 63.9828)" fill="#D9D9D9"/>
        </g>
        <path d="M80.5002 7.5C61.7002 21.5 52.3335 50.3333 50.0002 63M50.0002 63C49.6669 66.5 50.5002 74 56.5002 76C64.0002 78.5 69.5 78.5 70.5 76C71.5 73.5 75.5 77 76.5 63C77.3 51.8 64.8333 50.6667 58.5 51.5C55.529 53.5 49.6697 58.6 50.0002 63Z" stroke="black"/>
        <g filter="url(#filter1_d_88_6)">
            <circle cx="63.5" cy="64.5" r="13.5" fill="#46B2D4" fill-opacity="0.6" shape-rendering="crispEdges"/>
        </g>
    </g>
    <defs>
    <filter id="filter0_d_88_6" x="2" y="6" width="123.965" height="123.966" filterUnits="userSpaceOnUse" color-interpolation-filters="sRGB">
        <feFlood flood-opacity="0" result="BackgroundImageFix"/>
        <feColorMatrix in="SourceAlpha" type="matrix" values="0 0 0 0 0 0 0 0 0 0 0 0 0 0 0 0 0 0 127 0" result="hardAlpha"/>
        <feOffset dy="4"/>
        <feGaussianBlur stdDeviation="2"/>
        <feComposite in2="hardAlpha" operator="out"/>
        <feColorMatrix type="matrix" values="0 0 0 0 0 0 0 0 0 0 0 0 0 0 0 0 0 0 0.25 0"/>
        <feBlend mode="normal" in2="BackgroundImageFix" result="effect1_dropShadow_88_6"/>
        <feBlend mode="normal" in="SourceGraphic" in2="effect1_dropShadow_88_6" result="shape"/>
    </filter>
    <filter id="filter1_d_88_6" x="46" y="51" width="35" height="35" filterUnits="userSpaceOnUse" color-interpolation-filters="sRGB">
    <feFlood flood-opacity="0" result="BackgroundImageFix"/>
    <feColorMatrix in="SourceAlpha" type="matrix" values="0 0 0 0 0 0 0 0 0 0 0 0 0 0 0 0 0 0 127 0" result="hardAlpha"/>
    <feOffset dy="4"/>
    <feGaussianBlur stdDeviation="2"/>
    <feComposite in2="hardAlpha" operator="out"/>
    <feColorMatrix type="matrix" values="0 0 0 0 0 0 0 0 0 0 0 0 0 0 0 0 0 0 0.25 0"/>
    <feBlend mode="normal" in2="BackgroundImageFix" result="effect1_dropShadow_88_6"/>
    <feBlend mode="normal" in="SourceGraphic" in2="effect1_dropShadow_88_6" result="shape"/>
    </filter>
        <clipPath id="clip0_88_6">
            <rect width="128" height="126" fill="white"/>
        </clipPath>
    </defs>
</svg>
